<svg width="134" height="29" viewBox="0 0 134 29" fill="none" xmlns="http://www.w3.org/2000/svg">
<path d="M1.54025 2.53817C1.51958 4.01288 1.49546 6.23525 1.4679 9.2053C1.4679 9.72902 1.46101 10.2562 1.44722 10.7868L1.30251 18.5187L1.31285 18.7564C2.18113 18.7771 2.68074 18.7909 2.81166 18.7977C2.92882 18.8115 3.05285 18.815 3.18378 18.8081C3.30093 18.8218 3.42153 18.8287 3.54557 18.8287C3.80054 18.8632 3.96592 18.9735 4.04173 19.1595C4.12442 19.3456 4.11753 19.5248 4.02105 19.6971C3.92458 19.8762 3.74541 19.9693 3.48355 19.9762C3.3664 19.9693 3.2458 19.9623 3.12177 19.9554L2.74964 19.9451C1.86069 19.9107 1.23704 19.89 0.878704 19.8831C0.52726 19.8762 0.303298 19.8004 0.206822 19.6557C0.110347 19.5317 0.0724457 19.3318 0.0931187 19.0562C0.113793 18.5118 0.137911 17.7469 0.165476 16.7614C0.199931 15.776 0.258505 13.2504 0.341199 9.18464C0.341199 8.90209 0.344645 8.6299 0.351536 8.36807C0.365318 5.88726 0.375655 4.28163 0.382546 3.55117C0.382546 3.19972 0.385991 2.85172 0.392883 2.50717C0.399774 1.94898 0.40322 1.39769 0.40322 0.853298C0.396328 0.577652 0.444566 0.381255 0.547932 0.264106C0.6513 0.119393 0.878704 0.0539275 1.23015 0.0677097C1.58849 0.0746012 2.21214 0.0814916 3.10109 0.0883827H3.47321C3.59725 0.0952745 3.71784 0.0952745 3.835 0.0883827C4.09686 0.102165 4.26913 0.202086 4.35183 0.388146C4.44141 0.567315 4.44141 0.749928 4.35183 0.935992C4.26913 1.11516 4.1003 1.21508 3.84533 1.23575C3.72129 1.23575 3.6007 1.23575 3.48355 1.23575C3.35262 1.22886 3.22513 1.22886 3.10109 1.23575C2.97016 1.23575 2.45333 1.22542 1.55059 1.20474C1.55059 1.45972 1.54715 1.9042 1.54025 2.53817ZM25.0976 7.37575C25.0355 7.23102 24.9631 7.19656 24.8804 7.27237C24.7977 7.34817 24.715 7.46528 24.6324 7.62383C24.5497 7.7754 24.4808 7.93733 24.4257 8.10963C24.343 8.35771 24.3016 8.60579 24.3016 8.85387C24.3016 9.10195 24.3326 9.35003 24.3946 9.59811C24.5255 10.0598 24.6978 10.394 24.9115 10.6008C25.0286 10.1253 25.1251 9.56018 25.2009 8.90554C25.2216 8.61615 25.225 8.32669 25.2112 8.0373C25.1975 7.74093 25.1595 7.52041 25.0976 7.37575ZM17.7688 10.2597C17.8102 9.44654 17.8377 8.72296 17.8515 8.08897C17.8584 7.39295 17.8412 6.7004 17.7998 6.01129C17.7516 5.51513 17.6861 5.02242 17.6034 4.53315C17.5207 4.04388 17.3795 3.57184 17.1797 3.11702C17.028 2.83449 16.8626 2.60709 16.6835 2.43481C16.5043 2.26253 16.2597 2.14193 15.9495 2.07302L15.8566 2.05235L15.6602 2.03168C15.3569 2.01789 15.0606 2.05924 14.7712 2.15572C14.4818 2.2453 14.2027 2.3659 13.9339 2.5175C13.8926 2.54506 13.8546 2.57263 13.8202 2.60019L13.5618 2.76558C12.8933 3.28241 12.3593 3.90951 11.9596 4.64686L11.8769 4.81225L11.7322 5.12234C11.4221 5.82523 11.2981 6.55569 11.3601 7.31372C11.367 7.35503 11.3738 7.39986 11.3808 7.44808C11.3946 7.52387 11.4118 7.59972 11.4324 7.67551C11.591 8.24054 11.8941 8.70914 12.3421 9.08129C12.79 9.43272 13.2931 9.66015 13.8513 9.7635C14.1476 9.81863 14.4439 9.82899 14.7402 9.79452C14.9882 9.78761 15.164 9.86684 15.2673 10.0322C15.3707 10.1908 15.3845 10.363 15.3087 10.5491C15.2398 10.7352 15.0882 10.8454 14.8539 10.8799C14.4611 10.9143 14.0683 10.9005 13.6755 10.8385C13.2965 10.7627 12.9485 10.6525 12.6315 10.5077C12.3145 10.363 12.0044 10.177 11.7012 9.94954C11.0672 9.43963 10.6331 8.79874 10.3988 8.02694C10.3643 7.90977 10.3402 7.79606 10.3264 7.6858C10.3196 7.63758 10.3057 7.58591 10.2851 7.53078C10.1955 6.55914 10.3402 5.62884 10.7192 4.73989C10.7743 4.60895 10.8329 4.48491 10.895 4.36777L10.9777 4.1817C11.4531 3.29964 12.0905 2.54851 12.8899 1.92831C12.9864 1.85251 13.0828 1.7836 13.1794 1.72158L13.3344 1.61821C13.6721 1.41147 14.0304 1.24954 14.4094 1.13238C14.7885 1.00835 15.1777 0.946327 15.5775 0.946327H15.6602C15.7635 0.953221 15.86 0.963556 15.9495 0.977338C15.984 0.984226 16.0288 0.987673 16.0839 0.987673C16.8557 1.13928 17.4553 1.53552 17.8825 2.17639C17.9446 2.27287 18.0031 2.36934 18.0583 2.46582C18.0789 2.50717 18.103 2.54851 18.1306 2.58986C18.3718 3.12737 18.5441 3.67521 18.6475 4.23339C18.7508 4.79157 18.8266 5.35319 18.8748 5.91826C18.9231 6.63494 18.9438 7.35164 18.9369 8.06832C18.9231 8.68157 18.8989 9.40516 18.8645 10.239C18.8301 11.0659 18.768 12.0031 18.6784 13.0506L18.6371 13.5054C18.5062 14.7596 18.4821 16.0137 18.5647 17.2679C18.5785 17.3506 18.5924 17.4368 18.6061 17.5264C18.6406 17.7813 18.6888 18.0294 18.7508 18.2705C18.8197 18.5187 18.9369 18.7358 19.1023 18.9218C19.116 18.9425 19.1436 18.9597 19.185 18.9735C19.1988 18.9941 19.2091 19.008 19.216 19.0149C19.2229 19.0149 19.2332 19.0182 19.247 19.0252L19.34 19.0562C19.4847 19.0768 19.6535 19.0355 19.8465 18.9321C20.0395 18.8287 20.2152 18.715 20.3737 18.591C20.4012 18.5772 20.4219 18.5635 20.4357 18.5496C20.9043 18.1845 21.3212 17.7744 21.6864 17.3196C22.0517 16.8648 22.3893 16.3893 22.6994 15.8932C23.0578 15.2868 23.3782 14.6631 23.6608 14.0222C23.9501 13.3744 24.2155 12.7198 24.4567 12.0583C24.5049 11.9342 24.5394 11.8412 24.56 11.7792C24.2844 11.5242 24.0363 11.2417 23.8158 10.9316C23.6022 10.6145 23.4437 10.2494 23.3403 9.83583C23.2576 9.4844 23.2163 9.13988 23.2163 8.8022C23.2232 8.4576 23.2851 8.10963 23.4023 7.7582C23.5057 7.4619 23.6366 7.18623 23.7951 6.93126C23.9536 6.6694 24.1672 6.44888 24.436 6.26971L24.529 6.21803C24.591 6.19047 24.6531 6.16634 24.715 6.14567C25.0114 6.06298 25.2732 6.08365 25.5007 6.20769C25.7281 6.33173 25.9038 6.52124 26.0278 6.77621C26.1725 7.15522 26.2587 7.52732 26.2862 7.89257C26.3138 8.25782 26.3104 8.63335 26.2759 9.01926C26.1794 9.84619 26.0278 10.6214 25.8211 11.345C25.9658 11.4622 26.145 11.569 26.3586 11.6654C26.586 11.7895 26.8375 11.8929 27.1132 11.9756C27.5266 12.072 27.9401 12.1271 28.3536 12.1409C28.7739 12.1479 29.1978 12.1444 29.625 12.1306C29.8731 12.1375 30.0419 12.2271 30.1315 12.3994C30.2211 12.5648 30.2246 12.737 30.1418 12.9162C30.066 13.0953 29.9041 13.1953 29.656 13.216C29.1805 13.2366 28.7051 13.2366 28.2295 13.216C27.754 13.1953 27.2785 13.1264 26.8031 13.0092C26.7548 12.9954 26.6859 12.9782 26.5963 12.9575C26.5136 12.93 26.4207 12.8956 26.3172 12.8542C25.9658 12.7163 25.6833 12.5785 25.4696 12.4407C25.2147 13.1298 24.939 13.812 24.6427 14.4874C24.3464 15.1627 24.0053 15.8208 23.6194 16.4617L23.485 16.6684C23.4023 16.82 23.3127 16.9613 23.2163 17.0922C22.6305 17.9881 21.9173 18.7667 21.0765 19.4283C20.7665 19.6488 20.4288 19.8383 20.0636 19.9968C19.7052 20.1553 19.3228 20.1726 18.9162 20.0485C18.8197 20.014 18.7336 19.9727 18.6578 19.9244C18.6165 19.8969 18.5751 19.8693 18.5338 19.8418C18.4993 19.8073 18.4683 19.7798 18.4407 19.759C18.3649 19.6971 18.296 19.6316 18.2339 19.5627C17.979 19.2526 17.7998 18.908 17.6965 18.529C17.6 18.15 17.5311 17.771 17.4898 17.3919V17.3506C17.4002 16.0413 17.4243 14.732 17.5621 13.4227C17.5758 13.2711 17.5862 13.1195 17.5931 12.9679C17.6758 11.9756 17.7344 11.0728 17.7688 10.2597ZM29.8834 12.3374C30.1935 12.2478 30.4519 12.6233 30.6587 13.464C30.7827 13.8913 30.8895 14.2324 30.9791 14.4874C31.0756 14.7355 31.2203 14.9387 31.4132 15.0973C31.6062 15.2488 32.1472 15.173 33.0361 14.8698C33.925 14.5597 35.2688 13.7879 37.0674 12.5544C37.6049 12.3821 37.8185 12.5785 37.7083 13.1436C37.4602 13.4743 36.8572 13.943 35.8994 14.5494C34.9484 15.1558 34.1145 15.5865 33.3979 15.8415C32.6881 16.0964 32.1472 16.2308 31.775 16.2446C31.4098 16.2584 31.0721 16.1757 30.762 15.9965C30.4519 15.8174 30.2073 15.5383 30.0281 15.1592C29.8489 14.7733 29.718 14.4219 29.6353 14.1049C29.5526 13.7879 29.4906 13.5778 29.4493 13.4743C29.4079 13.371 29.3528 13.1884 29.2839 12.9265C29.2081 12.6647 29.4079 12.4683 29.8834 12.3374ZM30.0901 9.82554C32.1713 8.48179 33.5943 7.56525 34.3592 7.07597C34.5314 6.99328 34.6831 6.97261 34.814 7.01395C34.9449 7.0553 35.0414 7.12766 35.1034 7.23102C35.1862 7.35503 35.2034 7.49292 35.1551 7.64449C35.1138 7.78922 35.007 7.90977 34.8347 8.00628C34.1455 8.45422 33.3049 8.9986 32.3125 9.63949C31.3202 10.2803 30.762 10.6387 30.6379 10.7145C30.5346 10.7765 30.4278 10.8454 30.3175 10.9212C30.2142 10.9763 30.1108 11.0384 30.0074 11.1072C29.7801 11.2313 29.5871 11.2451 29.4286 11.1486C29.2632 11.0453 29.1771 10.9005 29.1702 10.7145C29.1564 10.5284 29.2563 10.3596 29.47 10.208C29.5733 10.1529 29.6766 10.0908 29.7801 10.0219C29.8834 9.9599 29.9868 9.89441 30.0901 9.82554ZM36.5919 19.573C36.5367 19.6626 36.3886 19.9072 36.1475 20.3069C35.8442 20.7962 35.5479 21.2923 35.2585 21.7954C34.9622 22.2847 34.6934 22.7877 34.4522 23.3046C34.2317 23.7387 34.0594 24.197 33.9354 24.6793C33.8251 25.0721 33.77 25.4787 33.77 25.8991C33.7631 26.216 33.801 26.5261 33.8837 26.8293C33.9319 27.0086 34.0112 27.1601 34.1214 27.2842C34.2248 27.3806 34.3385 27.4461 34.4626 27.4805C34.6004 27.5081 34.7451 27.4909 34.8967 27.4289C35.0483 27.3806 35.1792 27.2945 35.2895 27.1705C35.4342 26.9982 35.5548 26.8087 35.6513 26.6019C35.7822 26.347 35.8959 26.0817 35.9924 25.806C36.0957 25.5373 36.175 25.2616 36.2302 24.9791C36.2921 24.7034 36.337 24.4278 36.3645 24.1521L36.4265 23.1598C36.4472 22.836 36.4679 22.5086 36.4885 22.1779C36.5023 21.8677 36.5126 21.5542 36.5195 21.2372V20.9167C36.5265 20.6756 36.5334 20.4344 36.5402 20.1932C36.5678 19.8418 36.585 19.635 36.5919 19.573ZM37.7806 18.0225L37.7186 19.2112C37.6911 19.5627 37.667 19.9141 37.6462 20.2656C37.6393 20.4792 37.6325 20.6928 37.6256 20.9064V21.2372C37.6187 21.568 37.6049 21.8953 37.5842 22.2192C37.5704 22.5569 37.5532 22.8945 37.5325 23.2322L37.4706 24.2245C37.4361 24.576 37.3809 24.9205 37.3052 25.2582C37.2362 25.6027 37.1398 25.9404 37.0157 26.2711C36.8985 26.5882 36.7676 26.9017 36.6229 27.2118C36.4713 27.515 36.2921 27.7906 36.0854 28.0387C35.8442 28.3075 35.5686 28.5004 35.2585 28.6176C34.9484 28.7485 34.628 28.7933 34.2972 28.752C33.9664 28.6831 33.6735 28.528 33.4186 28.2868C33.1567 28.0181 32.9672 27.6873 32.85 27.2945C32.726 26.8604 32.664 26.4124 32.664 25.9507C32.664 25.4064 32.7295 24.8723 32.8604 24.3485C33.0189 23.7834 33.2222 23.2425 33.4703 22.7257C33.739 22.1606 34.0318 21.6162 34.3489 21.0925C34.6452 20.5894 34.9449 20.0898 35.2481 19.5936C35.5238 19.1389 35.8063 18.6841 36.0957 18.2292C36.3025 17.8985 36.5093 17.5815 36.7159 17.2782L36.7366 16.8855C36.7573 16.5202 36.7676 16.1515 36.7676 15.7795C36.7745 15.4349 36.7711 15.0938 36.7573 14.7561V14.3943C36.7573 14.2014 36.7539 14.0153 36.747 13.8361C36.7331 13.595 36.7263 13.3607 36.7263 13.1333C36.7263 12.8576 36.8124 12.6612 36.9847 12.5441C37.157 12.42 37.3327 12.4028 37.5119 12.4924C37.6979 12.5751 37.8047 12.7577 37.8323 13.0402C37.8323 13.2815 37.8392 13.5123 37.853 13.7328C37.8598 13.9326 37.8633 14.129 37.8633 14.322L37.8323 16.1619L38.711 15.2213L39.5482 14.3116C39.7687 14.0774 39.9892 13.8499 40.2097 13.6294L40.4785 13.3607C41.0367 12.7887 41.3915 12.5269 41.5432 12.5751C41.681 12.5957 41.7913 12.6578 41.874 12.7611C41.9567 12.8576 41.9842 12.9748 41.9567 13.1126C41.9291 13.2504 41.681 13.5674 41.2124 14.0636C40.7507 14.5597 40.42 14.918 40.2201 15.1386C39.9444 15.4487 39.6653 15.7519 39.3828 16.0482C39.0865 16.379 38.797 16.7201 38.5145 17.0715C38.2526 17.4023 38.008 17.7193 37.7806 18.0225ZM37.6773 9.82554C39.7584 8.48179 41.1814 7.56525 41.9463 7.07597C42.1186 6.99328 42.2701 6.97261 42.4011 7.01395C42.532 7.0553 42.6286 7.12766 42.6905 7.23102C42.7732 7.35503 42.7905 7.49292 42.7422 7.64449C42.7009 7.78922 42.5906 7.90977 42.4114 8.00628C41.7292 8.45422 40.8919 8.9986 39.8996 9.63949C38.9073 10.2803 38.3457 10.6387 38.2148 10.7145C38.1183 10.7765 38.0149 10.8454 37.9047 10.9212C37.8013 10.9763 37.6979 11.0384 37.5946 11.1072C37.3671 11.2313 37.1742 11.2451 37.0157 11.1486C36.8503 11.0453 36.7642 10.9005 36.7573 10.7145C36.7435 10.5284 36.8434 10.3596 37.0571 10.208C37.1604 10.1529 37.2638 10.0908 37.3671 10.0219C37.4706 9.9599 37.5739 9.89441 37.6773 9.82554ZM41.5638 15.1799H41.7086C41.9911 15.1386 42.2599 15.0559 42.5148 14.9319C42.7698 14.8009 43.0178 14.6493 43.2591 14.477C43.5347 14.3047 43.7931 14.1152 44.0343 13.9085C44.2617 13.6948 44.5098 13.4951 44.7786 13.3089C45.0611 13.1505 45.3333 13.0953 45.5952 13.1436C45.857 13.1919 46.1017 13.2987 46.329 13.464C46.3497 13.471 46.367 13.4847 46.3807 13.5054C46.4427 13.5536 46.5082 13.6088 46.5771 13.6707C46.6461 13.7328 46.7149 13.7914 46.7839 13.8465C46.8597 13.8947 46.9286 13.9257 46.9906 13.9395C47.0664 13.9326 47.1904 13.881 47.3627 13.7845C47.535 13.688 47.7797 13.5123 48.0966 13.2573C48.4136 12.9954 48.7271 12.7405 49.0373 12.4924C49.3474 12.2374 49.6161 12.265 49.8435 12.5751C50.0778 12.8783 49.9573 13.2091 49.4817 13.5674C49.0132 13.9188 48.7306 14.1393 48.6342 14.2289C48.5032 14.3461 48.3653 14.4529 48.2207 14.5494C48.007 14.7079 47.7797 14.8423 47.5384 14.9525C47.2972 15.0559 47.0251 15.0869 46.7218 15.0456C46.5082 14.9766 46.3153 14.8802 46.143 14.7561C46.0672 14.7148 45.9983 14.6665 45.9363 14.6114C45.8329 14.5356 45.7364 14.4564 45.6468 14.3737L45.6158 14.3427C45.5676 14.3013 45.5262 14.2738 45.4918 14.26C45.4573 14.2461 45.4194 14.2496 45.3781 14.2703C45.1369 14.4288 44.9095 14.6114 44.6958 14.8182C44.4478 15.0524 44.1756 15.2626 43.8793 15.4487C43.5485 15.6623 43.204 15.8552 42.8456 16.0275C42.4873 16.1929 42.1014 16.2894 41.6879 16.3169C41.4605 16.3032 41.2675 16.2653 41.1091 16.2033C40.9505 16.1619 40.8161 16.093 40.7059 15.9965C40.4647 15.7967 40.3165 15.4866 40.2614 15.0662C40.1994 14.6665 40.2097 14.2841 40.2924 13.9188C40.3751 13.5536 40.5164 13.2263 40.7162 12.9369C40.9161 12.6406 41.1607 12.3959 41.4501 12.203C41.7465 12.0031 42.0463 11.8619 42.3495 11.7792C42.6595 11.6965 42.9834 11.6654 43.3211 11.6861C43.6656 11.6999 44.0102 11.8136 44.3548 12.0272C44.6993 12.2408 44.8199 12.4889 44.7166 12.7715C44.5925 13.0196 44.4064 13.0919 44.1584 12.9885C43.9172 12.8783 43.6484 12.8232 43.3521 12.8232C43.0558 12.8162 42.7767 12.8645 42.5148 12.9679C42.2529 13.0643 42.029 13.2021 41.8429 13.3813C41.6569 13.5536 41.5191 13.8224 41.4295 14.1876C41.3468 14.546 41.3227 14.794 41.3571 14.9319C41.3915 15.0697 41.426 15.1455 41.4605 15.1592C41.4881 15.1661 41.5225 15.173 41.5638 15.1799ZM53.2753 19.3456C53.2615 19.3731 53.1547 19.5558 52.9549 19.8935C52.5345 20.6308 52.1659 21.3922 51.8488 22.1779C51.7386 22.4742 51.6455 22.7739 51.5697 23.0771C51.494 23.3872 51.456 23.7042 51.456 24.0281C51.4629 24.2211 51.4836 24.4071 51.5181 24.5863C51.5594 24.7724 51.6318 24.9411 51.7351 25.0928C51.7696 25.1342 51.8041 25.1686 51.8385 25.1961C51.8799 25.2237 51.9143 25.2375 51.9419 25.2375C51.9901 25.2237 52.0383 25.1824 52.0866 25.1134C52.1348 25.0514 52.1831 24.9756 52.2313 24.886C52.2451 24.8585 52.2588 24.8343 52.2727 24.8137C52.4449 24.4209 52.5827 24.0109 52.6861 23.5837C52.824 23.0255 52.9308 22.4603 53.0065 21.8884C53.1031 21.1855 53.1823 20.4792 53.2443 19.7694L53.2753 19.3456ZM56.5727 12.3374C57.0206 12.1581 57.2997 12.3339 57.4099 12.8645C56.5762 14.3255 55.9801 15.3109 55.6217 15.8208C55.2634 16.3307 54.8672 16.9061 54.433 17.547V17.5264C54.4192 18.2982 54.3848 19.07 54.3296 19.8418C54.2676 20.5722 54.1849 21.2993 54.0816 22.0228C53.9989 22.6361 53.8852 23.2425 53.7404 23.842C53.6233 24.3313 53.4648 24.8034 53.265 25.2582C53.1547 25.4924 53.0307 25.6855 52.8928 25.837C52.7619 25.9886 52.5793 26.1265 52.345 26.2505C52.0418 26.3401 51.78 26.3436 51.5594 26.2609C51.3458 26.185 51.1391 26.0437 50.9392 25.837C50.7325 25.5752 50.5878 25.2926 50.5051 24.9894C50.4292 24.6931 50.3845 24.3865 50.3707 24.0694C50.3638 23.6766 50.4051 23.2907 50.4947 22.9117C50.5843 22.5327 50.6946 22.164 50.8255 21.8057C51.1632 20.9581 51.556 20.1449 52.0039 19.3663C52.4381 18.6221 52.8825 17.9054 53.3373 17.2163C53.3442 16.6925 53.3339 16.2894 53.3063 16.0069C53.134 16.2756 52.8653 16.5582 52.5 16.8545C52.1348 17.1577 51.7558 17.3403 51.363 17.4023C50.9771 17.4643 50.6119 17.4264 50.2673 17.2886C49.9297 17.1577 49.654 16.9406 49.4404 16.6374C49.2337 16.341 49.0855 15.9655 48.9959 15.5107C48.8994 15.049 48.8547 14.5735 48.8615 14.0842C48.8684 13.588 48.8822 13.1746 48.9029 12.8438C48.9787 12.5957 49.113 12.4511 49.306 12.4097C49.492 12.3615 49.6574 12.3994 49.8022 12.5234C49.9538 12.6406 50.0227 12.8542 50.0089 13.1643C50.0089 13.4261 49.9986 13.7293 49.9779 14.0739C49.9573 14.4184 50.0124 14.8733 50.1433 15.4383C50.2742 16.0034 50.5568 16.2963 50.9909 16.3169C51.425 16.3445 51.8213 16.1309 52.1796 15.6761C52.5449 15.2213 52.7895 14.8043 52.9135 14.4253C53.0376 14.0394 53.1754 13.8086 53.327 13.7328C53.4855 13.657 53.6785 13.6639 53.9058 13.7534C53.9954 13.7948 54.0574 13.8534 54.0919 13.9292C54.1332 14.005 54.1643 14.0774 54.1849 14.1462C54.1918 14.1532 54.1987 14.1669 54.2056 14.1876C54.2814 14.5942 54.3296 14.9938 54.3503 15.3866C54.3572 15.428 54.3607 15.4693 54.3607 15.5107C54.3813 15.7174 54.3882 15.7829 54.3813 15.7071C54.4778 15.5761 54.6535 15.3281 54.9085 14.9628C54.9291 14.9422 54.9464 14.9215 54.9602 14.9008C55.0635 14.763 55.1635 14.6287 55.2599 14.4977C55.4736 14.1807 55.732 13.7534 56.0352 13.216C56.3384 12.6784 56.5176 12.3856 56.5727 12.3374ZM89.1538 12.6681C89.209 12.6543 89.2604 12.6371 89.3089 12.6165C89.5228 12.5613 89.6809 12.5199 89.7845 12.4924C89.8808 12.4717 89.9536 12.4545 90.0014 12.4407C90.0499 12.4269 90.0976 12.4166 90.1462 12.4097C90.2013 12.3959 90.2733 12.3787 90.363 12.358L90.7974 12.234C91.0525 12.1926 91.2451 12.2478 91.3759 12.3994C91.5141 12.551 91.5626 12.7302 91.5207 12.9369C91.4795 13.1436 91.3347 13.2848 91.087 13.3607C90.8871 13.4089 90.7423 13.4434 90.6526 13.464C90.5497 13.4985 90.4703 13.5226 90.4152 13.5364C90.3667 13.5433 90.3218 13.5536 90.2807 13.5674C90.2395 13.5812 90.1667 13.5984 90.0638 13.6191C89.9742 13.6466 89.8191 13.688 89.5985 13.7431C89.1575 13.8602 88.7194 13.9637 88.2857 14.0533C87.8513 14.1428 87.4206 14.222 86.9935 14.291C86.6833 14.3323 86.3702 14.3633 86.0527 14.384C85.7425 14.3978 85.433 14.3806 85.1228 14.3323C84.9089 14.2841 84.7024 14.222 84.5024 14.1462C84.3025 14.0705 84.1165 13.9637 83.9445 13.8258C83.6821 13.5984 83.4587 13.34 83.2727 13.0506C83.086 12.7335 82.9625 12.4717 82.9 12.265C82.8383 12.0583 82.7971 11.917 82.7758 11.8412C82.7214 11.6413 82.6214 11.2589 82.4766 10.6938C82.4347 10.5077 82.373 10.2562 82.2907 9.93925C82.2076 9.62222 82.0113 9.63604 81.7011 9.98056C81.391 10.3182 81.1153 10.6353 80.8742 10.9316C80.6331 11.221 80.4126 11.5207 80.2127 11.8308L79.9231 12.2547L79.6129 12.7094C79.4342 12.9713 79.2372 13.2194 79.0241 13.4537C78.8308 13.6742 78.6036 13.8499 78.342 13.9809C78.1626 14.0429 77.9869 14.0705 77.8142 14.0636C77.6495 14.0498 77.4834 13.9739 77.3188 13.8361C77.0982 13.5812 76.9843 13.2917 76.977 12.9679C76.9909 12.4579 77.0115 11.9101 77.0394 11.3243C77.0666 10.7386 77.1085 10.0598 77.1637 9.28799C77.1843 9.03991 77.2085 8.79183 77.2357 8.54375C77.2563 8.27502 77.2842 8.00628 77.3188 7.73755C77.3526 7.50321 77.3805 7.26892 77.4011 7.03462C77.4077 7.02084 77.4114 7.01395 77.4114 7.01395C77.418 6.9037 77.429 6.79344 77.4423 6.68318C77.4562 6.53158 77.4665 6.37308 77.4731 6.20769L77.4944 5.91826C77.5077 5.73909 77.518 5.56337 77.5253 5.3911C77.5319 5.34974 77.5356 5.3084 77.5356 5.26705C77.5496 5.08789 77.5496 4.90527 77.5356 4.71921C77.515 4.5745 77.4944 4.47458 77.4731 4.41945C77.4599 4.36432 77.3702 4.40911 77.2048 4.55382C77.0461 4.69164 76.8638 4.88115 76.6572 5.12234C76.4154 5.3842 76.1949 5.65985 75.9957 5.94927C75.7752 6.27316 75.5649 6.60737 75.365 6.95193C75.1305 7.36539 74.91 7.78231 74.7034 8.20269C74.469 8.68503 74.2587 9.18119 74.0728 9.69117C73.9008 10.2011 73.7457 10.7213 73.6075 11.252C73.4835 11.6654 73.3698 12.0824 73.2664 12.5027C73.2251 12.6406 73.1872 12.7749 73.1527 12.9058C73.0149 13.4227 72.8909 13.9464 72.7806 14.477C72.6704 14.9525 72.5739 15.428 72.4912 15.9035C72.4154 16.3514 72.3327 16.7959 72.2431 17.2369C72.188 17.5608 72.1156 17.8778 72.026 18.1879C72.026 18.2086 72.0191 18.2327 72.0054 18.2603C71.9571 18.4463 71.8882 18.6358 71.7986 18.8287C71.6608 19.0355 71.4885 19.1526 71.2818 19.1802C71.0819 19.2077 70.889 19.1217 70.7029 18.9218C70.5927 18.7013 70.541 18.4773 70.5479 18.2499V17.485L70.5686 16.6994V16.2653C70.5616 16.1343 70.5582 16.0069 70.5582 15.8828C70.5582 15.5727 70.5651 15.0042 70.5789 14.1773C70.5927 13.3503 70.6099 12.3374 70.6306 11.1383C70.6374 10.5594 70.6513 9.98401 70.6719 9.41207C70.6857 8.80565 70.7064 8.19923 70.7339 7.59281C70.7339 7.48256 70.7374 7.3723 70.7443 7.26203C70.7581 6.80033 70.765 6.33518 70.765 5.86658V5.52547C70.7718 5.15335 70.7684 4.78123 70.7546 4.40911C70.7339 3.98875 70.6926 3.57528 70.6306 3.16871C70.5892 2.8655 70.4996 2.57952 70.3618 2.31077C70.286 2.15916 70.1757 2.0489 70.031 1.97999C69.8381 1.91108 69.6417 1.91108 69.4419 1.97999C69.0284 2.1316 68.5874 2.37968 68.1188 2.72423C67.6502 3.06879 67.1299 3.49259 66.5579 3.99565C65.9859 4.49869 65.5036 4.98107 65.1108 5.44278C64.7249 5.89759 64.4217 6.2835 64.2012 6.60049C63.9807 6.91058 63.7842 7.23792 63.612 7.58245C63.4673 7.87191 63.3432 8.17167 63.2399 8.48179C63.1365 8.785 63.0676 9.09504 63.0331 9.41207C63.0263 9.66015 63.04 9.90477 63.0745 10.1459C63.1089 10.3871 63.1778 10.6214 63.2812 10.8489C63.3639 11.0143 63.4535 11.1693 63.5499 11.314C63.6533 11.4587 63.7739 11.5828 63.9117 11.6861C64.0427 11.7826 64.1805 11.8447 64.3252 11.8722C64.5802 11.9066 64.7455 12.0203 64.8213 12.2133C64.8972 12.3994 64.8799 12.582 64.7697 12.7611C64.6663 12.9403 64.4837 13.0265 64.2218 13.0196C63.8704 12.9644 63.5534 12.837 63.2709 12.6371C63.0366 12.4717 62.8401 12.2822 62.6817 12.0686C62.5232 11.8481 62.3819 11.6172 62.2578 11.3761C62.1063 11.059 62.0029 10.7317 61.9478 10.394C61.8927 10.0563 61.8719 9.71528 61.8858 9.37069C61.9133 8.96413 61.9891 8.57132 62.1132 8.19232C62.2441 7.81333 62.3957 7.44463 62.568 7.0863C62.7678 6.69351 62.9918 6.3214 63.2399 5.96995C63.4879 5.61161 63.8222 5.18436 64.2425 4.6882C64.6629 4.19204 65.1763 3.67865 65.7827 3.14804C66.3891 2.61053 66.9542 2.14883 67.4779 1.76293C68.0085 1.37702 68.5357 1.0876 69.0594 0.894645C69.2316 0.832621 69.4039 0.79817 69.5762 0.791275C69.8588 0.770605 70.1413 0.805057 70.4238 0.894645C70.6306 0.977338 70.8063 1.09104 70.951 1.23575C71.1026 1.38046 71.2336 1.54241 71.3438 1.72158C71.5505 2.10748 71.6918 2.5175 71.7676 2.95164C71.8365 3.41335 71.8813 3.87505 71.902 4.33675C71.9227 4.73644 71.9295 5.13268 71.9227 5.52547V5.86658C71.9158 6.34206 71.9054 6.81756 71.8917 7.29305C71.8917 7.40332 71.8882 7.51358 71.8813 7.62383C71.8537 8.22334 71.8365 8.82631 71.8296 9.43272C71.809 10.0047 71.7918 10.5767 71.7779 11.1486C71.771 11.6448 71.771 12.0927 71.7779 12.4924C71.7848 12.8921 71.7848 13.247 71.7779 13.5571L72.0364 12.6061C72.0708 12.482 72.1018 12.3546 72.1294 12.2236C72.2465 11.7895 72.3672 11.3553 72.4912 10.9212C72.6428 10.3768 72.8082 9.83583 72.9873 9.29836C73.1803 8.76089 73.4042 8.23025 73.6589 7.70653C73.8868 7.25169 74.1213 6.81066 74.3624 6.38342C74.5755 6.01819 74.7961 5.6564 75.0239 5.29806C75.265 4.96729 75.523 4.65375 75.7987 4.35742C76.4257 3.64076 76.9946 3.23418 77.5047 3.1377C77.7252 3.1377 77.9075 3.19283 78.0523 3.30309C78.1971 3.41335 78.3177 3.55117 78.414 3.71655C78.5522 3.98531 78.6382 4.2644 78.6727 4.55382C78.6999 4.81568 78.7036 5.07755 78.683 5.33941V5.43244C78.6757 5.6185 78.6654 5.80457 78.6521 5.99062L78.6308 6.28005L78.5897 6.77621C78.5831 6.87958 78.5728 6.98639 78.5588 7.09665C78.5316 7.36539 78.5 7.63412 78.4654 7.90293C78.4316 8.13719 78.4074 8.38527 78.3934 8.64717C78.3868 8.65401 78.3831 8.65746 78.3831 8.65746C78.3552 8.89863 78.3346 9.13988 78.3214 9.38105C78.3001 9.61531 78.2729 9.94608 78.2383 10.3734C78.2038 10.7937 78.1869 11.5586 78.1869 12.6681C78.3589 12.4683 78.5176 12.2615 78.6624 12.0479C78.7653 11.8963 78.8653 11.7447 78.9616 11.5931C79.0586 11.4553 79.1549 11.314 79.2512 11.1693C79.4791 10.8454 79.7202 10.525 79.9752 10.208C80.2435 9.88412 80.5265 9.57055 80.8228 9.26734C81.0984 8.99169 81.4115 8.77118 81.7629 8.60579C81.9834 8.5231 82.187 8.5059 82.373 8.55412C82.559 8.5955 82.7383 8.69194 82.9103 8.84351C83.0411 8.9814 83.1448 9.12951 83.2205 9.28799C83.2962 9.44654 83.3616 9.60847 83.4168 9.77386C83.4858 9.98056 83.5447 10.1873 83.5924 10.394L83.8718 11.5001C83.9063 11.6103 83.9681 11.7792 84.0577 12.0066C84.1548 12.2271 84.2437 12.4062 84.3267 12.5441C84.4091 12.675 84.5127 12.7956 84.6369 12.9058C84.7678 13.0092 84.8883 13.0781 84.9986 13.1126C85.1088 13.147 85.2257 13.1746 85.3499 13.1953C85.591 13.2366 85.8424 13.2538 86.1048 13.247C86.3665 13.2332 86.7488 13.1849 87.2523 13.1023C87.7617 13.0126 88.396 12.8679 89.1538 12.6681ZM91.0767 15.1799H91.2215C91.5038 15.1386 91.7728 15.0559 92.0272 14.9319C92.2822 14.8009 92.5307 14.6493 92.7718 14.477C93.0474 14.3047 93.3062 14.1152 93.5472 13.9085C93.7744 13.6948 94.0221 13.4951 94.2911 13.3089C94.5734 13.1505 94.8461 13.0953 95.1078 13.1436C95.3694 13.1919 95.6142 13.2987 95.8421 13.464C95.8627 13.471 95.8796 13.4847 95.8935 13.5054C95.9553 13.5536 96.0207 13.6088 96.0898 13.6707C96.1589 13.7328 96.2273 13.7914 96.2963 13.8465C96.3721 13.8947 96.4411 13.9257 96.5036 13.9395C96.5793 13.9326 96.7028 13.881 96.8756 13.7845C97.0476 13.688 97.2923 13.5123 97.6091 13.2573C97.926 12.9954 98.2398 12.7405 98.55 12.4924C98.8602 12.2374 99.1285 12.265 99.3564 12.5751C99.5908 12.8783 99.4696 13.2091 98.9947 13.5674C98.5258 13.9188 98.2435 14.1393 98.1465 14.2289C98.0156 14.3461 97.8782 14.4529 97.7334 14.5494C97.5195 14.7079 97.2923 14.8423 97.0512 14.9525C96.8101 15.0559 96.5374 15.0869 96.2346 15.0456C96.0207 14.9766 95.8281 14.8802 95.6554 14.7561C95.5797 14.7148 95.5113 14.6665 95.4488 14.6114C95.3452 14.5356 95.2489 14.4564 95.1592 14.3737L95.1283 14.3427C95.0806 14.3013 95.0387 14.2738 95.0041 14.26C94.9703 14.2461 94.9321 14.2496 94.8909 14.2703C94.6498 14.4288 94.422 14.6114 94.2088 14.8182C93.9603 15.0524 93.6884 15.2626 93.3922 15.4487C93.0614 15.6623 92.7166 15.8552 92.3579 16.0275C92 16.1929 91.6141 16.2894 91.2002 16.3169C90.9731 16.3032 90.7805 16.2653 90.6217 16.2033C90.463 16.1619 90.3292 16.093 90.2189 15.9965C89.9771 15.7967 89.8293 15.4866 89.7742 15.0662C89.7117 14.6665 89.722 14.2841 89.8051 13.9188C89.8882 13.5536 90.0293 13.2263 90.2292 12.9369C90.4284 12.6406 90.6732 12.3959 90.9628 12.203C91.259 12.0031 91.5589 11.8619 91.8618 11.7792C92.172 11.6965 92.4961 11.6654 92.8335 11.6861C93.1782 11.6999 93.523 11.8136 93.8677 12.0272C94.2117 12.2408 94.3323 12.4889 94.2294 12.7715C94.1051 13.0196 93.9192 13.0919 93.6707 12.9885C93.4296 12.8783 93.1613 12.8232 92.8651 12.8232C92.5682 12.8162 92.2896 12.8645 92.0272 12.9679C91.7655 13.0643 91.542 13.2021 91.3553 13.3813C91.1694 13.5536 91.0319 13.8224 90.9422 14.1876C90.8592 14.546 90.8356 14.794 90.8694 14.9319C90.904 15.0697 90.9385 15.1455 90.9731 15.1592C91.001 15.1661 91.0348 15.173 91.0767 15.1799ZM103.791 14.1049C103.825 14.1118 103.859 14.1187 103.894 14.1256C103.99 14.1256 104.094 14.0946 104.204 14.0325C104.597 13.9016 105.186 13.3985 105.972 12.5234C106.544 12.3166 106.781 12.5441 106.685 13.2056C106.403 13.5364 106.144 13.8293 105.909 14.0842C105.682 14.3323 105.351 14.6114 104.917 14.9215C104.49 15.2247 104.097 15.3419 103.739 15.2729C103.381 15.1971 103.071 15.0283 102.809 14.7665C102.519 14.4288 102.275 14.0739 102.075 13.7018C102.054 13.6742 102.037 13.6466 102.023 13.6191C102.003 13.5846 101.982 13.5605 101.961 13.5467C101.94 13.5329 101.909 13.5157 101.868 13.4951C101.827 13.4743 101.792 13.4606 101.764 13.4537C101.668 13.4537 101.568 13.4812 101.465 13.5364C101.176 13.7156 100.91 13.9326 100.669 14.1876C100.09 14.8009 99.7695 15.1455 99.7077 15.2213C99.2667 15.428 98.905 15.3625 98.622 15.0249L98.6426 14.322C98.65 13.9705 98.6088 13.6501 98.5191 13.3607C98.2986 12.9748 98.3912 12.6681 98.7977 12.4407C99.1285 12.1926 99.3872 12.3374 99.5732 12.8748C99.6768 13.1919 99.732 13.4055 99.7386 13.5157C99.7452 13.5088 99.804 13.4468 99.9143 13.3297C100.231 12.9989 100.6 12.7198 101.021 12.4924C101.358 12.3684 101.678 12.327 101.982 12.3684C102.291 12.4028 102.581 12.551 102.85 12.8128C103.132 13.1505 103.377 13.5054 103.584 13.8775C103.598 13.9051 103.615 13.9326 103.636 13.9602C103.656 13.9947 103.681 14.0222 103.708 14.0429C103.728 14.0705 103.756 14.0911 103.791 14.1049ZM110.54 12.8025C110.423 12.7543 110.303 12.706 110.179 12.6578C109.91 12.5544 109.635 12.4855 109.352 12.4511C108.973 12.4028 108.663 12.389 108.422 12.4097C108.18 12.4235 107.904 12.4889 107.595 12.6061C107.285 12.7163 107.04 12.8301 106.861 12.9472C106.689 13.0643 106.616 13.1333 106.644 13.1539C106.678 13.1746 106.785 13.1919 106.964 13.2056C107.267 13.2194 107.605 13.2125 107.977 13.1849C108.349 13.1505 108.731 13.0919 109.124 13.0092C109.241 12.9885 109.352 12.9644 109.455 12.9369C109.703 12.8748 109.951 12.8301 110.199 12.8025C110.317 12.7887 110.43 12.7887 110.54 12.8025ZM108.287 26.5502C108.576 26.3987 108.883 26.0989 109.207 25.651C109.531 25.21 109.786 24.4967 109.972 23.5113C110.158 22.5327 110.327 20.9134 110.478 18.6531C110.196 19.0114 109.848 19.5007 109.435 20.1208C109.028 20.748 108.669 21.3475 108.359 21.9194C108.049 22.4914 107.791 23.0013 107.584 23.4493C107.385 23.8972 107.271 24.4381 107.243 25.0721C107.222 25.713 107.319 26.1574 107.532 26.4055C107.753 26.6536 108.004 26.7019 108.287 26.5502ZM110.933 12.9265C111.058 12.9954 111.171 13.0851 111.274 13.1953C111.412 13.3675 111.509 13.6122 111.564 13.9292C111.619 14.2461 111.643 14.6941 111.636 15.2729L111.626 15.5417C111.86 15.2454 112.087 14.9456 112.308 14.6424C112.529 14.3323 112.756 13.9981 112.99 13.6397C113.231 13.2745 113.445 12.9679 113.631 12.7198C113.783 12.5269 113.952 12.4476 114.138 12.482C114.331 12.5097 114.472 12.6061 114.562 12.7715C114.658 12.93 114.64 13.1161 114.509 13.3297C114.331 13.5708 114.103 13.9016 113.827 14.322C113.559 14.7355 113.259 15.1661 112.928 15.6141C112.598 16.0551 112.167 16.6512 111.636 17.4023C111.443 20.5722 111.24 22.7119 111.026 23.8214C110.813 24.9309 110.475 25.7854 110.013 26.3849C109.635 26.8948 109.266 27.2394 108.907 27.4186C108.549 27.5977 108.235 27.7045 107.967 27.739C107.705 27.7734 107.436 27.7252 107.16 27.5942C106.891 27.4633 106.654 27.1429 106.447 26.6329C106.24 26.1299 106.154 25.5132 106.189 24.7827C106.217 24.0591 106.478 23.2115 106.974 22.2398C107.471 21.2751 107.97 20.4137 108.473 19.6557C108.983 18.8977 109.448 18.2292 109.868 17.6504L110.127 17.2886L110.448 16.8338C110.475 16.4272 110.499 15.9586 110.52 15.428C110.54 14.8905 110.537 14.5149 110.509 14.3013C110.482 14.0808 110.448 13.9498 110.406 13.9085C110.372 13.8671 110.299 13.8534 110.189 13.8671C110.086 13.881 109.934 13.912 109.735 13.9602C109.603 13.9878 109.469 14.0153 109.331 14.0429C108.911 14.1325 108.473 14.1945 108.018 14.2289C107.571 14.2634 107.219 14.2703 106.964 14.2496C106.716 14.2289 106.505 14.2014 106.333 14.1669C106.168 14.1256 106.003 14.0566 105.837 13.9602C105.665 13.8569 105.537 13.719 105.455 13.5467C105.365 13.3744 105.376 13.1539 105.486 12.8852C105.596 12.6095 105.813 12.3649 106.137 12.1512C106.461 11.9376 106.768 11.7792 107.057 11.6758C107.346 11.5656 107.571 11.4931 107.729 11.4587C107.894 11.4174 108.049 11.3898 108.194 11.3761C108.339 11.3622 108.494 11.3553 108.659 11.3553C108.955 11.3485 109.245 11.3691 109.527 11.4174C109.879 11.4587 110.22 11.5414 110.55 11.6654C110.758 11.7344 110.954 11.8205 111.14 11.9239C111.347 12.041 111.45 12.1926 111.45 12.3787C111.457 12.5579 111.385 12.706 111.233 12.8232C111.144 12.8989 111.044 12.9334 110.933 12.9265ZM114.189 15.1799H114.334C114.617 15.1386 114.885 15.0559 115.14 14.9319C115.395 14.8009 115.644 14.6493 115.885 14.477C116.16 14.3047 116.418 14.1152 116.659 13.9085C116.887 13.6948 117.135 13.4951 117.404 13.3089C117.686 13.1505 117.959 13.0953 118.221 13.1436C118.482 13.1919 118.727 13.2987 118.954 13.464C118.975 13.471 118.993 13.4847 119.007 13.5054C119.068 13.5536 119.134 13.6088 119.203 13.6707C119.271 13.7328 119.34 13.7914 119.409 13.8465C119.485 13.8947 119.554 13.9257 119.616 13.9395C119.692 13.9326 119.816 13.881 119.989 13.7845C120.161 13.688 120.405 13.5123 120.722 13.2573C121.039 12.9954 121.353 12.7405 121.663 12.4924C121.973 12.2374 122.241 12.265 122.469 12.5751C122.703 12.8783 122.583 13.2091 122.107 13.5674C121.639 13.9188 121.356 14.1393 121.259 14.2289C121.129 14.3461 120.991 14.4529 120.846 14.5494C120.632 14.7079 120.405 14.8423 120.164 14.9525C119.922 15.0559 119.65 15.0869 119.348 15.0456C119.134 14.9766 118.94 14.8802 118.768 14.7561C118.693 14.7148 118.624 14.6665 118.562 14.6114C118.458 14.5356 118.362 14.4564 118.272 14.3737L118.241 14.3427C118.193 14.3013 118.152 14.2738 118.117 14.26C118.083 14.2461 118.045 14.2496 118.004 14.2703C117.762 14.4288 117.535 14.6114 117.321 14.8182C117.073 15.0524 116.801 15.2626 116.504 15.4487C116.174 15.6623 115.83 15.8552 115.471 16.0275C115.113 16.1929 114.727 16.2894 114.313 16.3169C114.086 16.3032 113.893 16.2653 113.735 16.2033C113.576 16.1619 113.441 16.093 113.331 15.9965C113.09 15.7967 112.942 15.4866 112.887 15.0662C112.825 14.6665 112.835 14.2841 112.918 13.9188C113 13.5536 113.142 13.2263 113.341 12.9369C113.541 12.6406 113.786 12.3959 114.076 12.203C114.372 12.0031 114.672 11.8619 114.975 11.7792C115.285 11.6965 115.609 11.6654 115.946 11.6861C116.291 11.6999 116.636 11.8136 116.98 12.0272C117.325 12.2408 117.445 12.4889 117.342 12.7715C117.218 13.0196 117.032 13.0919 116.784 12.9885C116.543 12.8783 116.274 12.8232 115.977 12.8232C115.681 12.8162 115.402 12.8645 115.14 12.9679C114.878 13.0643 114.654 13.2021 114.468 13.3813C114.282 13.5536 114.145 13.8224 114.055 14.1876C113.972 14.546 113.948 14.794 113.982 14.9319C114.017 15.0697 114.052 15.1455 114.086 15.1592C114.113 15.1661 114.148 15.173 114.189 15.1799ZM121.921 8.87452C121.935 7.99937 121.966 7.10698 122.014 6.19735C122.056 5.22571 122.1 4.22305 122.149 3.18938C122.183 3.00333 122.259 2.86894 122.376 2.78625C122.5 2.70356 122.627 2.6691 122.758 2.68289C122.917 2.68978 123.048 2.75525 123.151 2.87929C123.262 2.99643 123.307 3.15838 123.285 3.3651C123.258 3.94396 123.23 4.56072 123.203 5.21537C123.182 5.86313 123.158 6.50401 123.13 7.13799C123.103 7.73064 123.082 8.32324 123.068 8.91591C123.048 9.48094 123.024 10.0461 122.996 10.6111L122.603 19.9554C122.597 20.0726 122.59 20.1967 122.583 20.3276C122.569 20.4448 122.562 20.5653 122.562 20.6894C122.521 20.9512 122.403 21.1201 122.211 21.1958C122.025 21.2717 121.845 21.2544 121.673 21.1442C121.494 21.0408 121.408 20.8616 121.415 20.6067C121.429 20.4895 121.435 20.3689 121.435 20.2449C121.449 20.1208 121.456 19.9968 121.456 19.8727L121.797 12.1512C121.818 11.6207 121.839 11.0935 121.859 10.5698L121.921 8.87452ZM121.921 8.87452C121.935 7.99937 121.966 7.10698 122.014 6.19735C122.056 5.22571 122.1 4.22305 122.149 3.18938C122.183 3.00333 122.259 2.86894 122.376 2.78625C122.5 2.70356 122.627 2.6691 122.758 2.68289C122.917 2.68978 123.048 2.75525 123.151 2.87929C123.262 2.99643 123.307 3.15838 123.285 3.3651C123.258 3.94396 123.23 4.56072 123.203 5.21537C123.182 5.86313 123.158 6.50401 123.13 7.13799C123.103 7.73064 123.082 8.32324 123.068 8.91591C123.048 9.48094 123.024 10.0461 122.996 10.6111L122.603 19.9554C122.597 20.0726 122.59 20.1967 122.583 20.3276C122.569 20.4448 122.562 20.5653 122.562 20.6894C122.521 20.9512 122.403 21.1201 122.211 21.1958C122.025 21.2717 121.845 21.2544 121.673 21.1442C121.494 21.0408 121.408 20.8616 121.415 20.6067C121.429 20.4895 121.435 20.3689 121.435 20.2449C121.449 20.1208 121.456 19.9968 121.456 19.8727L121.797 12.1512C121.818 11.6207 121.839 11.0935 121.859 10.5698L121.921 8.87452ZM132.775 2.55885C132.781 1.92486 132.785 1.48039 132.785 1.22542C131.882 1.22542 131.366 1.22197 131.235 1.21508C131.117 1.20819 130.99 1.20819 130.852 1.21508C130.735 1.20819 130.614 1.20474 130.49 1.20474C130.235 1.17718 130.066 1.07381 129.984 0.894645C129.901 0.708583 129.904 0.525969 129.994 0.3468C130.09 0.16074 130.27 0.0642642 130.531 0.057373C130.649 0.0642642 130.77 0.0677097 130.893 0.0677097H131.266C132.154 0.0814916 132.775 0.0883827 133.126 0.0883827C133.484 0.0883827 133.715 0.16074 133.819 0.305453C133.915 0.429493 133.957 0.62589 133.943 0.894645C133.935 1.43904 133.929 1.99033 133.922 2.54851C133.922 2.89307 133.919 3.24107 133.912 3.59251C133.898 4.32297 133.87 5.9286 133.829 8.40938C133.829 8.67128 133.825 8.94347 133.819 9.22603C133.812 13.2917 133.812 15.8174 133.819 16.8028C133.833 17.7951 133.843 18.5635 133.849 19.1078C133.863 19.3766 133.822 19.573 133.726 19.6971C133.622 19.8418 133.391 19.9141 133.033 19.9141C132.681 19.9141 132.061 19.921 131.172 19.9348H130.8C130.676 19.9348 130.556 19.9382 130.439 19.9451C130.176 19.9382 129.998 19.8418 129.901 19.6557C129.812 19.4765 129.808 19.2939 129.89 19.1078C129.973 18.9287 130.143 18.8253 130.397 18.7977C130.521 18.7977 130.642 18.7943 130.759 18.7874C130.897 18.7943 131.025 18.7943 131.141 18.7874C131.272 18.7805 131.772 18.7771 132.64 18.7771L132.651 18.5394L132.681 10.8075C132.681 10.2769 132.685 9.74975 132.692 9.22603C132.734 6.25593 132.761 4.03355 132.775 2.55885Z" fill="white"/>
</svg>
